# xmcd
#
# Track frame offsets:
#	150
#	13707
#	26755
#	40100
#	51267
#	63270
#	77367
#	90712
#	105067
#	118847
#	132507
#	145692
#	158590
#	173262
#	186695
#	200852
#	214567
#	228365
#	244865
#	257197
#	270340
#	284590
#	298577
#	312202
#	323340
#
# Disc length: 4476 seconds
#
# Revision: 1
# Processed by: cddbd v1.5.1PL2 Copyright (c) Steve Scherf et al.
# Submitted via: audiograbber 1.83.01
#
DISCID=5b117a19
DTITLE=Tommy Ladnier - Steppin On The Blues
DYEAR=1900
DGENRE=
TTITLE0=Play That Thing
TTITLE1=Ida Coxs Lawdy Lawdy Blues
TTITLE2=Kentucky Man Blues
TTITLE3=Steppin On The Blues
TTITLE4=Travellin Blues
TTITLE5=Galion Stomp
TTITLE6=The Chant
TTITLE7=Snag It
TTITLE8=St Louis Shuffle
TTITLE9=Dyin By The Hour
TTITLE10=Foolish Man Blues
TTITLE11=Sweetie Dear
TTITLE12=Found A New Baby
TTITLE13=Maple Leaf Rag
TTITLE14=Shag
TTITLE15=Comin On With The Come On
TTITLE16=Weary Blues
TTITLE17=Really The Blues
TTITLE18=When You And I Were Young Maggie
TTITLE19=JaGa
TTITLE20=Royal Garden Blues
TTITLE21=If You See Me Comin
TTITLE22=None Of This Jelly Roll
TTITLE23=Everbody Loves My Baby
TTITLE24=Double Crossin Papa
EXTD=
EXTT0=
EXTT1=
EXTT2=
EXTT3=
EXTT4=
EXTT5=
EXTT6=
EXTT7=
EXTT8=
EXTT9=
EXTT10=
EXTT11=
EXTT12=
EXTT13=
EXTT14=
EXTT15=
EXTT16=
EXTT17=
EXTT18=
EXTT19=
EXTT20=
EXTT21=
EXTT22=
EXTT23=
EXTT24=
PLAYORDER=
